# 3ds Max Wavefront OBJ Exporter v0.97b - (c)2007 guruware
# File Created: 13.02.2018 23:51:50

mtllib 101350.mtl

#
# object Cylinder002
#

v  -1.3572 -1.5000 40.4556
v  -4.8500 -1.5000 41.9024
v  -8.3428 -1.5000 40.4556
v  -9.7895 -1.5000 36.9628
v  -8.3428 -1.5000 33.4701
v  -4.8500 -1.5000 32.0233
v  -1.3572 -1.5000 33.4701
v  0.0895 -1.5000 36.9628
v  1.7144 0.0000 36.9628
v  -0.2083 0.0000 32.3211
v  -0.2083 32.4411 32.3211
v  1.7144 32.4411 36.9628
v  -4.8500 0.0000 30.3984
v  -4.8500 32.4411 30.3984
v  -9.4917 0.0000 32.3211
v  -9.4917 32.4411 32.3211
v  -11.4144 0.0000 36.9628
v  -11.4144 32.4411 36.9628
v  -9.4917 0.0000 41.6046
v  -9.4917 32.4411 41.6046
v  -4.8500 0.0000 43.5272
v  -4.8500 32.4411 43.5272
v  -0.2083 0.0000 41.6046
v  -0.2083 32.4411 41.6046
v  -1.3825 61.2174 40.4304
v  0.0538 61.2174 36.9628
v  -1.3825 61.2174 33.4953
v  -4.8500 61.2174 32.0590
v  -8.3175 61.2174 33.4953
v  -9.7538 61.2174 36.9628
v  -8.3175 61.2174 40.4304
v  -4.8500 61.2174 41.8667
v  1.7144 59.7174 36.9628
v  -0.2083 59.7174 32.3211
v  -4.8500 59.7174 30.3984
v  -9.4917 59.7174 32.3211
v  -11.4144 59.7174 36.9628
v  -9.4917 59.7174 41.6046
v  -4.8500 59.7174 43.5272
v  -0.2083 59.7174 41.6046
# 40 vertices

vn 0.3094 -0.8992 0.3094
vn 0.0000 -0.8992 0.4375
vn -0.3094 -0.8992 0.3094
vn -0.4375 -0.8992 0.0000
vn -0.3094 -0.8992 -0.3094
vn -0.0000 -0.8992 -0.4375
vn 0.3094 -0.8992 -0.3094
vn 0.4375 -0.8992 0.0000
vn 0.9294 -0.3690 -0.0000
vn 0.6572 -0.3690 -0.6572
vn 0.7071 0.0000 -0.7071
vn 1.0000 0.0000 -0.0000
vn -0.0000 -0.3690 -0.9294
vn -0.0000 0.0000 -1.0000
vn -0.6572 -0.3690 -0.6572
vn -0.7071 0.0000 -0.7071
vn -0.9294 -0.3690 0.0000
vn -1.0000 0.0000 0.0000
vn -0.6572 -0.3690 0.6572
vn -0.7071 0.0000 0.7071
vn 0.0000 -0.3690 0.9294
vn 0.0000 0.0000 1.0000
vn 0.6572 -0.3690 0.6572
vn 0.7071 0.0000 0.7071
vn 0.3054 0.9019 0.3054
vn 0.4319 0.9019 0.0000
vn 0.3054 0.9019 -0.3054
vn -0.0000 0.9019 -0.4319
vn -0.3054 0.9019 -0.3054
vn -0.4319 0.9019 0.0000
vn -0.3054 0.9019 0.3054
vn 0.0000 0.9019 0.4319
vn 0.9277 0.3733 -0.0000
vn 0.6560 0.3733 -0.6560
vn -0.0000 0.3733 -0.9277
vn -0.6560 0.3733 -0.6560
vn -0.9277 0.3733 0.0000
vn -0.6560 0.3733 0.6560
vn 0.0000 0.3733 0.9277
vn 0.6560 0.3733 0.6560
# 40 vertex normals

vt 0.6250 0.0000 1.0000
vt 0.5000 0.0000 1.0000
vt 0.3750 0.0000 1.0000
vt 0.2500 0.0000 1.0000
vt 0.1250 0.0000 1.0000
vt 0.0000 0.0000 1.0000
vt -0.1250 0.0000 1.0000
vt 0.1161 0.0000 0.4142
vt 0.7500 0.0000 1.0000
vt 0.8750 0.0000 1.0000
vt 0.8750 0.5432 1.0000
vt 0.7500 0.5432 1.0000
vt 0.0000 0.5432 1.0000
vt -0.1250 0.5432 1.0000
vt 0.1250 0.5432 1.0000
vt 0.2500 0.5432 1.0000
vt 0.3750 0.5432 1.0000
vt 0.5000 0.5432 1.0000
vt 0.6250 0.5432 1.0000
vt 0.6250 1.0000 1.0000
vt 0.7500 1.0000 1.0000
vt 0.8750 1.0000 1.0000
vt 0.7803 1.0000 0.4142
vt 0.5214 1.0000 -0.4142
vt 0.2500 1.0000 -1.0000
vt 0.1250 1.0000 -1.0000
vt 0.2197 1.0000 -0.4142
vt 0.1250 1.0000 1.0000
vt 0.0000 1.0000 1.0000
vt 0.2500 1.0000 1.0000
vt 0.3750 1.0000 1.0000
vt 0.5000 1.0000 1.0000
vt -0.1250 1.0000 1.0000
# 33 texture coords

o Cylinder002
g Cylinder002
usemtl wire_153228184
s 1
f 1/1/1 2/2/2 3/3/3 4/4/4 5/5/5 6/6/6 7/7/7 8/8/8 
s 8
f 9/9/9 10/10/10 11/11/11 12/12/12 
f 10/7/10 13/6/13 14/13/14 11/14/11 
f 13/6/13 15/5/15 16/15/16 14/13/14 
f 15/5/15 17/4/17 18/16/18 16/15/16 
f 17/4/17 19/3/19 20/17/20 18/16/18 
f 19/3/19 21/2/21 22/18/22 20/17/20 
f 21/2/21 23/1/23 24/19/24 22/18/22 
f 23/1/23 9/9/9 12/12/12 24/19/24 
s 1
f 25/20/25 26/21/26 27/22/27 28/23/28 29/24/29 30/25/30 31/26/31 32/27/32 
s off
f 33/21/33 34/22/34 27/22/27 26/21/26 
f 34/22/34 35/23/35 28/23/28 27/22/27 
f 35/23/35 36/24/36 29/24/29 28/23/28 
f 36/24/36 37/25/37 30/25/30 29/24/29 
f 37/25/37 38/26/38 31/26/31 30/25/30 
f 38/26/38 39/27/39 32/27/32 31/26/31 
f 39/27/39 40/20/40 25/20/25 32/27/32 
f 40/20/40 33/21/33 26/21/26 25/20/25 
f 10/7/10 9/8/9 8/8/8 7/7/7 
f 9/8/9 23/1/23 1/1/1 8/8/8 
f 23/1/23 21/2/21 2/2/2 1/1/1 
f 21/2/21 19/3/19 3/3/3 2/2/2 
f 19/3/19 17/4/17 4/4/4 3/3/3 
f 17/4/17 15/5/15 5/5/5 4/4/4 
f 15/5/15 13/6/13 6/6/6 5/5/5 
f 13/6/13 10/7/10 7/7/7 6/6/6 
s 8
f 11/11/11 34/22/34 33/21/33 12/12/12 
f 14/13/14 16/15/16 36/28/36 35/29/35 
f 18/16/18 37/30/37 36/28/36 16/15/16 
f 20/17/20 38/31/38 37/30/37 18/16/18 
f 22/18/22 39/32/39 38/31/38 20/17/20 
f 24/19/24 40/20/40 39/32/39 22/18/22 
f 12/12/12 33/21/33 40/20/40 24/19/24 
f 35/29/35 34/33/34 11/14/11 14/13/14 
# 34 polygons

#
# object Cylinder003
#

